<?xml version="1.0" encoding="UTF-8" standalone="no"?><!DOCTYPE svg PUBLIC "-//W3C//DTD SVG 1.1//EN" "http://www.w3.org/Graphics/SVG/1.1/DTD/svg11.dtd"><svg width="100%" height="100%" viewBox="0 0 127 13" version="1.1" xmlns="http://www.w3.org/2000/svg" xmlns:xlink="http://www.w3.org/1999/xlink" xml:space="preserve" xmlns:serif="http://www.serif.com/" style="fill-rule:evenodd;clip-rule:evenodd;stroke-linejoin:round;stroke-miterlimit:1.41421;"><g id="GenericLogo---Black" serif:id="GenericLogo - Black"><g id="BLACK"><g><path d="M46.324,9.75l-5.213,0c-0.832,0.055 -1.479,0.766 -1.481,1.625c-0.021,0.869 0.639,1.593 1.481,1.625l5.213,0c0.842,-0.032 1.502,-0.756 1.481,-1.625c-0.009,-0.856 -0.653,-1.563 -1.481,-1.625Z" style="fill:#232323;"/><path d="M42.167,5l-1.056,0c-0.832,0.055 -1.479,0.766 -1.481,1.625c-0.021,0.869 0.639,1.594 1.481,1.625l1.056,0c0.842,-0.031 1.502,-0.756 1.481,-1.625c-0.009,-0.856 -0.653,-1.563 -1.481,-1.625Z" style="fill:#232323;"/><path d="M46.324,0l-5.213,0c-0.832,0.055 -1.479,0.766 -1.481,1.625c-0.021,0.869 0.639,1.593 1.481,1.625l5.213,0c0.842,-0.032 1.502,-0.756 1.481,-1.625c-0.009,-0.856 -0.653,-1.563 -1.481,-1.625Z" style="fill:#232323;"/></g><path d="M11.124,1.889c-1.184,-1.178 -2.803,-1.889 -4.596,-1.889c-3.603,0 -6.528,2.912 -6.528,6.499c0,3.587 2.925,6.499 6.528,6.499c1.811,0 3.447,-0.745 4.631,-1.924l-2.438,-2.391c-0.539,0.554 -1.305,0.866 -2.193,0.866c-1.776,0 -3.064,-1.282 -3.064,-3.05c0,-1.768 1.288,-3.05 3.064,-3.05c0.888,0 1.654,0.312 2.193,0.849l2.403,-2.409Zm5.167,11.109l3.43,0l0,-12.998l-3.43,0l0,12.998Zm19.407,-11.109c-1.183,-1.178 -2.802,-1.889 -4.595,-1.889c-3.604,0 -6.528,2.912 -6.528,6.499c0,3.587 2.924,6.499 6.528,6.499c1.81,0 3.446,-0.745 4.63,-1.924l-2.437,-2.391c-0.54,0.554 -1.306,0.866 -2.193,0.866c-1.776,0 -3.064,-1.282 -3.064,-3.05c0,-1.768 1.288,-3.05 3.064,-3.05c0.887,0 1.653,0.312 2.193,0.849l2.402,-2.409Zm28.476,11.109l-3.951,0l-2.02,-3.449l-2.124,0l0,3.449l-3.429,0l0,-12.998l5.501,0c2.646,0 4.805,2.149 4.805,4.783c0,1.387 -0.61,2.634 -1.55,3.501l2.768,4.714Zm-8.095,-10.121l0,3.726l2.124,0c1.045,0 1.88,-0.815 1.88,-1.854c0,-1.04 -0.835,-1.872 -1.88,-1.872l-2.124,0Zm11.716,3.639c0,-3.587 2.907,-6.516 6.511,-6.516c3.603,0 6.528,2.929 6.528,6.516c0,3.588 -2.925,6.482 -6.528,6.482c-3.604,0 -6.511,-2.894 -6.511,-6.482Zm9.627,-0.017c0,-1.716 -1.393,-3.102 -3.116,-3.102c-1.706,0 -3.099,1.386 -3.099,3.102c0,1.698 1.393,3.102 3.099,3.102c1.723,0 3.116,-1.404 3.116,-3.102Z" style="fill:#232323;"/></g><g><path d="M89.162,12.873c2.724,0 4.164,-1.855 4.164,-3.604c0,-1.804 -1.368,-2.868 -3.334,-3.355l-1.678,-0.397c-1.858,-0.433 -2.038,-1.425 -2.038,-2.002c0,-1.389 1.317,-2.272 2.724,-2.272c1.497,0 2.633,0.883 2.706,2.254l1.188,0c-0.072,-2.074 -1.748,-3.37 -3.858,-3.37c-2.057,0 -3.948,1.332 -3.948,3.388c0,0.992 0.378,2.489 2.938,3.102l1.677,0.397c1.227,0.307 2.435,0.956 2.435,2.309c0,1.172 -0.992,2.434 -2.976,2.434c-1.75,0 -2.868,-1.172 -2.994,-2.398l-1.17,0c0.09,1.803 1.729,3.514 4.164,3.514Z" style="fill:#4a4a4a;fill-rule:nonzero;"/><path d="M100.324,12.873c2.399,0 4.435,-1.638 4.435,-4.361l0,-8.241l-1.188,0l0,8.241c0,2.073 -1.479,3.227 -3.247,3.227c-1.768,0 -3.247,-1.154 -3.247,-3.227l0,-8.241l-1.188,0l0,8.241c0,2.723 2.036,4.361 4.435,4.361Z" style="fill:#4a4a4a;fill-rule:nonzero;"/><path d="M116.48,4.057c0,-1.913 -0.99,-3.786 -3.588,-3.786l-4.615,0l0,12.422l1.188,0l0,-4.869l2.075,0l3.409,4.869l1.441,0l-3.443,-4.869c2.561,-0.054 3.533,-1.873 3.533,-3.767Zm-7.015,-2.67l3.446,0c1.587,0 2.381,1.19 2.381,2.67c0,1.479 -0.74,2.67 -2.688,2.67l-3.139,0l0,-5.34Z" style="fill:#4a4a4a;fill-rule:nonzero;"/><path d="M126.343,1.387l0,-1.116l-6.994,0l0,12.422l1.188,0l0,-5.536l4.598,0l0,-1.116l-4.598,0l0,-4.654l5.806,0Z" style="fill:#4a4a4a;fill-rule:nonzero;"/></g></g></svg>