<?xml version="1.0" encoding="utf-8"?>
<svg version="1.1" xmlns:xlink="http://www.w3.org/1999/xlink" width="108px" height="162px" xmlns="http://www.w3.org/2000/svg">
  <g transform="matrix(1 0 0 1 0 -17 )">
    <path d="M 0 17  L 108 17  L 108 179  L 0 179  L 0 17  " fill-rule="nonzero" fill="#cccccc" stroke="none" />
    <path d="M 8 25  L 100 25  L 100 171  L 8 171  L 8 25  " fill-rule="nonzero" fill="#ffffff" stroke="none" />
    <path d="M 64.26 57.5  C 59.724 57.5  56.16 53.936  56.16 49.4  C 56.16 44.864  59.724 41.3  64.26 41.3  C 68.796 41.3  72.36 44.864  72.36 49.4  C 72.36 53.936  68.796 57.5  64.26 57.5  " fill-rule="nonzero" fill="#cccccc" stroke="none" />
    <path d="M 11 169  L 11 91.45  L 32.75 56.2  L 63.2 84.4  L 80.6 77.35  L 98 84.4  L 98 169  L 11 169  " fill-rule="nonzero" fill="#169bd5" stroke="none" />
  </g>
</svg>