<?xml version="1.0" encoding="UTF-8" standalone="no"?><!DOCTYPE svg PUBLIC "-//W3C//DTD SVG 1.1//EN" "http://www.w3.org/Graphics/SVG/1.1/DTD/svg11.dtd"><svg width="100%" height="100%" viewBox="0 0 320 568" version="1.1" xmlns="http://www.w3.org/2000/svg" xmlns:xlink="http://www.w3.org/1999/xlink" xml:space="preserve" style="fill-rule:evenodd;clip-rule:evenodd;stroke-linejoin:round;stroke-miterlimit:1.41421;"><rect id="Typography-.26.-Color" x="-40" y="-170" width="1280" height="800" style="fill:none;"/><g id="Bluedotted_background"><clipPath id="_clip1"><rect x="0" y="0" width="320" height="568"/></clipPath><g clip-path="url(#_clip1)"><rect x="-0.533" y="0" width="320" height="568" style="fill:url(#_Linear2);fill-rule:nonzero;"/><rect x="0" y="0" width="320" height="568" style="fill:url(#_Linear3);fill-rule:nonzero;"/><path d="M15.552,442.571l-74.357,74.357c-11.148,12.57 -11.143,31.049 0.01,42.243c10.985,11.602 29.826,11.607 42.243,0.01l74.357,-74.357c11.597,-12.417 11.592,-31.258 -0.01,-42.243c-11.258,-11.012 -29.626,-11.017 -42.243,-0.01Z" style="fill:#fff;fill-opacity:0.1;"/><path d="M315.552,490.571l-74.357,74.357c-11.148,12.57 -11.143,31.049 0.01,42.243c10.985,11.602 29.826,11.607 42.243,0.01l74.357,-74.357c11.597,-12.417 11.592,-31.258 -0.01,-42.243c-11.258,-11.012 -29.626,-11.017 -42.243,-0.01Z" style="fill:#fff;fill-opacity:0.1;"/><path d="M255.552,347.571l-74.357,74.357c-11.148,12.57 -11.143,31.049 0.01,42.243c10.985,11.602 29.826,11.607 42.243,0.01l74.357,-74.357c11.597,-12.417 11.592,-31.258 -0.01,-42.243c-11.258,-11.012 -29.626,-11.017 -42.243,-0.01Z" style="fill:#fff;fill-opacity:0.1;"/><path d="M306.552,61.571l-74.357,74.357c-11.148,12.57 -11.143,31.049 0.01,42.243c10.985,11.603 29.826,11.607 42.243,0.01l74.357,-74.357c11.597,-12.417 11.592,-31.258 -0.01,-42.243c-11.258,-11.012 -29.626,-11.017 -42.243,-0.01Z" style="fill:#fff;fill-opacity:0.1;"/><path d="M30.552,21.571l-74.357,74.357c-11.148,12.57 -11.143,31.049 0.01,42.243c10.985,11.603 29.826,11.607 42.243,0.01l74.357,-74.357c11.597,-12.417 11.592,-31.258 -0.01,-42.243c-11.258,-11.012 -29.626,-11.017 -42.243,-0.01Z" style="fill:#fff;fill-opacity:0.1;"/></g></g><defs><linearGradient id="_Linear2" x1="0" y1="0" x2="1" y2="0" gradientUnits="userSpaceOnUse" gradientTransform="matrix(6.27019e-14,1024,-1024,6.27019e-14,-0.53334,0)"><stop offset="0" style="stop-color:#0c46d9;stop-opacity:0"/><stop offset="1" style="stop-color:#0533a5;stop-opacity:0"/></linearGradient><linearGradient id="_Linear3" x1="0" y1="0" x2="1" y2="0" gradientUnits="userSpaceOnUse" gradientTransform="matrix(3.48439e-14,569.044,-569.044,3.48439e-14,153.061,-3)"><stop offset="0" style="stop-color:#0078d3;stop-opacity:1"/><stop offset="1" style="stop-color:#00519e;stop-opacity:1"/></linearGradient></defs></svg>