<?xml version="1.0" encoding="UTF-8" standalone="no"?>
<!DOCTYPE svg PUBLIC "-//W3C//DTD SVG 1.1//EN" "http://www.w3.org/Graphics/SVG/1.1/DTD/svg11.dtd">
<svg width="100%" height="100%" viewBox="0 0 110 14" version="1.1" xmlns="http://www.w3.org/2000/svg" xmlns:xlink="http://www.w3.org/1999/xlink" xml:space="preserve" style="fill-rule:evenodd;clip-rule:evenodd;stroke-linejoin:round;stroke-miterlimit:1.41421;">
    <g id="SystematicLogoWhite" transform="matrix(0.564279,0,0,0.564279,-149.78,-370.593)">
        <path d="M284.306,656.799L275.015,656.799C273.638,656.799 270.226,657.091 269.034,660.671C267.765,664.47 268.179,666.579 268.179,666.913C268.179,667.247 268.367,669.064 271.134,670.095C271.726,670.316 273.846,671.089 274.408,671.293C275.868,671.825 277.468,672.678 276.796,675.103C276.19,677.278 275.556,677.428 273.531,677.428L266.148,677.428L265.435,681.564L277.863,681.564C278.788,681.564 282.173,681.21 283.299,676.964C284.329,673.081 284.066,671.269 284.011,670.96C283.956,670.652 283.869,668.845 281.056,667.778C280.269,667.479 277.368,666.436 276.917,666.278C276.354,666.078 274.671,665.294 275.341,662.869C275.79,661.228 276.427,660.945 277.954,660.892C278.083,660.887 283.66,660.892 283.66,660.892L284.306,656.799Z" style="fill:white;fill-rule:nonzero;"/>
        <path d="M320.785,656.799L311.494,656.799C310.117,656.799 306.705,657.091 305.513,660.671C304.245,664.47 304.658,666.579 304.658,666.913C304.658,667.247 304.846,669.064 307.613,670.095C308.205,670.316 310.325,671.089 310.887,671.293C312.347,671.825 313.947,672.678 313.275,675.103C312.669,677.278 312.035,677.428 310.01,677.428L302.627,677.428L301.914,681.564L314.342,681.564C315.267,681.564 318.652,681.21 319.779,676.964C320.808,673.081 320.545,671.269 320.49,670.96C320.435,670.652 320.349,668.845 317.535,667.778C316.748,667.479 313.847,666.436 313.396,666.278C312.833,666.078 311.15,665.294 311.82,662.869C312.269,661.228 312.906,660.945 314.433,660.892C314.562,660.887 320.139,660.892 320.139,660.892L320.785,656.799Z" style="fill:white;fill-rule:nonzero;"/>
        <path d="M460.359,656.799L450.47,656.799C450.47,656.799 447.043,657.017 444.959,659.121C444.959,659.121 442.547,661.149 441.355,668.304C441.355,668.304 440.381,672.76 440.589,675.938C440.882,680.312 444.783,681.564 447.089,681.564L457.933,681.564L458.646,677.428L450.812,677.428C449.961,677.394 447.535,677.017 447.72,673.791C447.982,669.338 448.615,666.871 449.964,663.298C450.832,661.004 453.582,660.892 453.582,660.892L459.699,660.892L460.359,656.799Z" style="fill:white;fill-rule:nonzero;"/>
        <path d="M440.174,656.799L433.373,656.799L429.201,681.564L436.01,681.564L440.174,656.799Z" style="fill:white;fill-rule:nonzero;"/>
        <path d="M296.824,672.344L295.345,681.564L288.502,681.564L290.158,671.241L285.383,656.754L292.054,656.754L294.84,665.209L299.789,656.754L306.308,656.754L296.824,672.344Z" style="fill:white;fill-rule:nonzero;"/>
        <path d="M340.952,660.897L335.083,660.897L331.556,681.564L324.721,681.564L328.248,660.897L321.659,660.897L322.303,656.754L341.597,656.754L340.952,660.897Z" style="fill:white;fill-rule:nonzero;"/>
        <path d="M430.287,660.897L424.418,660.897L420.892,681.564L414.057,681.564L417.584,660.897L410.994,660.897L411.639,656.754L430.932,656.754L430.287,660.897Z" style="fill:white;fill-rule:nonzero;"/>
        <path d="M359.464,660.912L349.204,660.912L348.355,666.14L355.945,666.14L355.288,670.262L347.697,670.262L346.536,677.405L356.796,677.405L356.139,681.563L339.009,681.563L342.989,656.754L360.12,656.754L359.464,660.912Z" style="fill:white;fill-rule:nonzero;"/>
        <path d="M380.998,656.798L374.121,672.487L372.15,656.798L361.999,656.798L358.026,681.564L364.375,681.564L367.019,665.366L369.055,681.564L374.889,681.564L382.254,664.763L382.074,665.878C382.072,665.898 382.07,665.916 382.066,665.932L379.559,681.564L385.865,681.564L389.838,656.798L380.998,656.798Z" style="fill:white;fill-rule:nonzero;"/>
        <path d="M397.762,671.942L402.26,662.446L403.844,671.942L397.762,671.942ZM407.795,656.797L398.664,656.797L386.932,681.563L393.203,681.563L396.104,675.44L404.457,675.44L405.492,681.563L411.983,681.563L407.795,656.797Z" style="fill:white;fill-rule:nonzero;"/>
    </g>
</svg>
