<?xml version="1.0" encoding="UTF-8" standalone="no"?><!DOCTYPE svg PUBLIC "-//W3C//DTD SVG 1.1//EN" "http://www.w3.org/Graphics/SVG/1.1/DTD/svg11.dtd"><svg width="100%" height="100%" viewBox="0 0 26 32" version="1.1" xmlns="http://www.w3.org/2000/svg" xmlns:xlink="http://www.w3.org/1999/xlink" xml:space="preserve" style="fill-rule:evenodd;clip-rule:evenodd;stroke-linecap:round;stroke-linejoin:round;stroke-miterlimit:1.5;"><g id="LoansMenu"><g><rect x="4.309" y="9.472" width="14.792" height="20.843" style="fill:none;stroke:#fff;stroke-width:1.89px;"/><rect x="0.947" y="9.472" width="3.362" height="20.843" style="fill:#fff;stroke:#fff;stroke-width:1.89px;"/><path d="M13.57,9.472l0,6.052l1.421,-0.673l1.421,0.673l0,-6.052" style="fill:#fff;"/></g><g><path d="M7.007,5.694l-3.277,0c-0.047,0 -0.085,0.038 -0.085,0.085l0,1.619l3.362,0l0,-1.704Z" style="fill:#fff;stroke:#fff;stroke-width:1.89px;stroke-linecap:butt;stroke-linejoin:miter;"/><path d="M6.466,5.694l15.333,0l0,20.844" style="fill:none;stroke:#fff;stroke-width:1.89px;"/><rect x="16.267" y="5.694" width="2.842" height="2.443" style="fill:#fff;"/></g><g><path d="M9.614,1.895l-3.276,0c-0.047,0 -0.086,0.038 -0.086,0.085l0,1.618l3.362,0l0,-1.703Z" style="fill:#fff;stroke:#fff;stroke-width:1.89px;stroke-linecap:butt;stroke-linejoin:miter;"/><path d="M9.074,1.895l15.332,0l0,20.843" style="fill:none;stroke:#fff;stroke-width:1.89px;"/><rect x="18.875" y="1.895" width="2.842" height="2.443" style="fill:#fff;"/></g></g></svg>