<?xml version="1.0" encoding="UTF-8" standalone="no"?><!DOCTYPE svg PUBLIC "-//W3C//DTD SVG 1.1//EN" "http://www.w3.org/Graphics/SVG/1.1/DTD/svg11.dtd"><svg width="100%" height="100%" viewBox="0 0 34 32" version="1.1" xmlns="http://www.w3.org/2000/svg" xmlns:xlink="http://www.w3.org/1999/xlink" xml:space="preserve" style="fill-rule:evenodd;clip-rule:evenodd;stroke-linecap:square;stroke-linejoin:round;stroke-miterlimit:1.5;"><g id="Too-oldMenu"><path d="M14.488,4.875c0.412,-0.772 1.216,-1.255 2.091,-1.255c0.875,0 1.679,0.483 2.091,1.255c3.072,5.772 8.757,16.454 11.688,21.96c0.39,0.734 0.367,1.619 -0.061,2.332c-0.428,0.713 -1.199,1.149 -2.03,1.149c-6.004,0 -17.372,0 -23.376,0c-0.832,0 -1.602,-0.436 -2.03,-1.149c-0.429,-0.713 -0.451,-1.598 -0.061,-2.332c2.931,-5.506 8.616,-16.188 11.688,-21.96Z" style="fill:none;stroke:#fff;stroke-width:1.89px;"/><path d="M14.998,25.234c0,0.928 0.738,1.59 1.628,1.59c0.891,0 1.648,-0.662 1.648,-1.59c0,-0.909 -0.757,-1.572 -1.648,-1.572c-0.89,0 -1.628,0.663 -1.628,1.572Zm3.067,-10.458c0.057,-0.72 -0.643,-1.269 -1.419,-1.269c-0.739,0 -1.459,0.568 -1.421,1.269l0.303,7.049c0.019,0.549 0.53,0.985 1.117,0.985c0.607,0 1.099,-0.436 1.118,-0.985l0.302,-7.049Z" style="fill:#fff;fill-rule:nonzero;"/></g></svg>