<?xml version="1.0" encoding="UTF-8" standalone="no"?><!DOCTYPE svg PUBLIC "-//W3C//DTD SVG 1.1//EN" "http://www.w3.org/Graphics/SVG/1.1/DTD/svg11.dtd"><svg width="100%" height="100%" viewBox="0 0 29 29" version="1.1" xmlns="http://www.w3.org/2000/svg" xmlns:xlink="http://www.w3.org/1999/xlink" xml:space="preserve" style="fill-rule:evenodd;clip-rule:evenodd;stroke-linecap:round;stroke-linejoin:round;stroke-miterlimit:1.5;"><g id="ReservationsMenu"><g><rect x="3.573" y="5.274" width="5.593" height="10.866" style="fill:#fff;"/><circle cx="6.369" cy="2.237" r="2.237" style="fill:#fff;"/><path d="M4.691,26.526l0,-11.185" style="fill:none;stroke:#fff;stroke-width:2.24px;"/><path d="M8.047,26.526l0,-11.185" style="fill:none;stroke:#fff;stroke-width:2.24px;"/><path d="M4.132,6.392c0,0 -0.686,0 -1.299,0c-0.249,0 -0.487,0.099 -0.663,0.275c-0.176,0.176 -0.275,0.415 -0.275,0.664c0,2.442 0,8.809 0,8.809" style="fill:none;stroke:#fff;stroke-width:2.24px;"/><path d="M8.606,6.392c0,0 0.686,0 1.299,0c0.249,0 0.487,0.099 0.663,0.275c0.176,0.176 0.275,0.415 0.275,0.664c0,2.442 0,8.809 0,8.809" style="fill:none;stroke:#fff;stroke-width:2.24px;"/></g><g><rect x="12.371" y="5.269" width="5.188" height="10.081" style="fill:#fff;"/><circle cx="14.965" cy="2.452" r="2.075" style="fill:#fff;"/><path d="M13.408,24.985l0,-10.377" style="fill:none;stroke:#fff;stroke-width:2.08px;"/><path d="M16.521,24.985l0,-10.377" style="fill:none;stroke:#fff;stroke-width:2.08px;"/><path d="M17.04,6.307c0,0 0.587,0 1.137,0c0.249,0 0.488,0.098 0.664,0.274c0.176,0.176 0.275,0.415 0.275,0.664c0,2.314 0,8.105 0,8.105" style="fill:none;stroke:#fff;stroke-width:2.08px;"/></g><g><rect x="20.643" y="5.251" width="4.717" height="9.164" style="fill:#fff;"/><circle cx="23.001" cy="2.69" r="1.887" style="fill:#fff;"/><path d="M21.586,23.174l0,-9.433" style="fill:none;stroke:#fff;stroke-width:1.89px;"/><path d="M24.416,23.174l0,-9.433" style="fill:none;stroke:#fff;stroke-width:1.89px;"/><path d="M24.888,6.194c0,0 0.475,0 0.948,0c0.519,0 0.939,0.42 0.939,0.939c0,2.156 0,7.282 0,7.282" style="fill:none;stroke:#fff;stroke-width:1.89px;"/></g></g></svg>