<?xml version="1.0" encoding="UTF-8" standalone="no"?><!DOCTYPE svg PUBLIC "-//W3C//DTD SVG 1.1//EN" "http://www.w3.org/Graphics/SVG/1.1/DTD/svg11.dtd"><svg width="100%" height="100%" viewBox="0 0 32 31" version="1.1" xmlns="http://www.w3.org/2000/svg" xmlns:xlink="http://www.w3.org/1999/xlink" xml:space="preserve" style="fill-rule:evenodd;clip-rule:evenodd;stroke-linecap:round;stroke-linejoin:round;stroke-miterlimit:1.5;"><g id="Ready-for-pick-upMenu"><path d="M25.298,13.305c0.348,1.145 0.536,2.361 0.536,3.62c0,6.868 -5.576,12.443 -12.443,12.443c-6.868,0 -12.444,-5.575 -12.444,-12.443c0,-6.867 5.576,-12.443 12.444,-12.443c2.785,0 5.357,0.917 7.432,2.465" style="fill:none;stroke:#fff;stroke-width:1.89px;"/><path d="M13.821,4.482l0,3.394" style="fill:none;stroke:#fff;stroke-width:1.89px;"/><path d="M13.687,29.368l0,-3.393" style="fill:none;stroke:#fff;stroke-width:1.89px;"/><path d="M0.947,16.925l3.394,0" style="fill:none;stroke:#fff;stroke-width:1.89px;"/><path d="M25.834,16.925l-3.394,0" style="fill:none;stroke:#fff;stroke-width:1.89px;"/><path d="M8.853,14.612l4.901,4.902l16.107,-16.106" style="fill:none;stroke:#fff;stroke-width:1.89px;"/><rect x="12.713" y="1.794" width="2.262" height="2.516" style="fill:#fff;"/><rect x="10.775" y="0" width="6.139" height="2.516" style="fill:#fff;"/><path d="M2.917,7.816c0,0 -0.397,-4.677 4.406,-3.525c-3.307,1.622 -4.406,3.525 -4.406,3.525Z" style="fill:#fff;"/></g></svg>