<?xml version="1.0" encoding="UTF-8" standalone="no"?><!DOCTYPE svg PUBLIC "-//W3C//DTD SVG 1.1//EN" "http://www.w3.org/Graphics/SVG/1.1/DTD/svg11.dtd"><svg width="100%" height="100%" viewBox="0 0 31 31" version="1.1" xmlns="http://www.w3.org/2000/svg" xmlns:xlink="http://www.w3.org/1999/xlink" xml:space="preserve" style="fill-rule:evenodd;clip-rule:evenodd;stroke-linejoin:round;stroke-miterlimit:1.41421;"><path id="HelpMenu" d="M15.158,0c-8.372,0 -15.158,6.786 -15.158,15.158c0,8.371 6.786,15.158 15.158,15.158c8.371,0 15.158,-6.787 15.158,-15.158c0,-4.02 -1.597,-7.876 -4.44,-10.718c-2.843,-2.843 -6.698,-4.44 -10.718,-4.44Zm12.704,11.368l-5.599,0c-0.754,-1.407 -1.908,-2.561 -3.316,-3.315l0,-5.599c4.285,1.279 7.636,4.63 8.915,8.914Zm-12.704,9.948c-3.401,0 -6.158,-2.757 -6.158,-6.158c0,-3.401 2.757,-6.158 6.158,-6.158c3.401,0 6.158,2.757 6.158,6.158c-0.005,3.399 -2.759,6.153 -6.158,6.158Zm1.895,-19.27l0,5.296c-1.244,-0.313 -2.546,-0.313 -3.79,0l0,-5.296c1.255,-0.201 2.535,-0.201 3.79,0Zm-5.685,0.408l0,5.599c-1.435,0.773 -2.604,1.962 -3.353,3.41l-5.59,0c1.257,-4.327 4.625,-7.72 8.943,-9.009Zm-4.054,14.504l-5.287,0c-0.182,-1.193 -0.182,-2.407 0,-3.6l5.287,0c-0.28,1.184 -0.28,2.416 0,3.6Zm-4.889,1.895l5.58,0c0.752,1.449 1.924,2.638 3.363,3.41l0,5.599c-4.318,-1.289 -7.686,-4.682 -8.943,-9.009Zm10.838,9.416l0,-5.295c1.244,0.313 2.546,0.313 3.79,0l0,5.295c-1.255,0.202 -2.535,0.202 -3.79,0Zm5.684,-0.407l0,-5.599c1.408,-0.754 2.562,-1.908 3.316,-3.316l5.599,0c-1.279,4.285 -4.63,7.636 -8.915,8.915Zm9.322,-10.809l-5.295,0c0.312,-1.244 0.312,-2.546 0,-3.79l5.295,0c0.202,1.255 0.202,2.535 0,3.79Z" style="fill:#fff8f8;"/></svg>