<?xml version="1.0" encoding="utf-8"?>
<svg version="1.1" xmlns:xlink="http://www.w3.org/1999/xlink" width="9px" height="9px" xmlns="http://www.w3.org/2000/svg">
  <defs>
    <mask fill="white" id="clip854">
      <path d="M 4.5 0  C 6.98528138291437 0  9 2.01471912969128  9 4.50000051260566  C 9 6.98528189552003  6.98528138291437 9  4.5 9  C 2.01471861708563 9  0 6.98528189552003  0 4.50000051260566  C 0 2.01471912969128  2.01471861708563 0  4.5 0  Z " fill-rule="evenodd" />
    </mask>
  </defs>
  <g transform="matrix(1 0 0 1 -437 -733 )">
    <path d="M 4.5 0  C 6.98528138291437 0  9 2.01471912969128  9 4.50000051260566  C 9 6.98528189552003  6.98528138291437 9  4.5 9  C 2.01471861708563 9  0 6.98528189552003  0 4.50000051260566  C 0 2.01471912969128  2.01471861708563 0  4.5 0  Z " fill-rule="nonzero" fill="#ffffff" stroke="none" fill-opacity="0" transform="matrix(1 0 0 1 437 733 )" />
    <path d="M 4.5 0  C 6.98528138291437 0  9 2.01471912969128  9 4.50000051260566  C 9 6.98528189552003  6.98528138291437 9  4.5 9  C 2.01471861708563 9  0 6.98528189552003  0 4.50000051260566  C 0 2.01471912969128  2.01471861708563 0  4.5 0  Z " stroke-width="4.16666793823242" stroke="#4a4a4a" fill="none" transform="matrix(1 0 0 1 437 733 )" mask="url(#clip854)" />
  </g>
</svg>