<?xml version="1.0" encoding="utf-8"?>
<svg version="1.1" xmlns:xlink="http://www.w3.org/1999/xlink" width="18px" height="11px" xmlns="http://www.w3.org/2000/svg">
  <g transform="matrix(1 0 0 1 -3 -12 )">
    <path d="M 0 4.07102216667763  C 0.792559441333695 3.95837280891  1.76418654096847 3.6318983989144  2.5779373985922 4.04911823753321  C 4.71297399699382 5.22776423918048  6.07134439852877 5.06087636629212  7.55580400842557 4.43296052838542  C 9.02119132550417 3.81651821973066  10.675182447293 5.41968567505984  12.4732751453825 5.09529726684379  C 14.7873792205134 4.67807742822498  15.8056263102417 3.72994537557304  17.3960430923745 3.88953195736539  C 17.5973616606121 3.90934989869437  17.7986814317624 3.93229621710103  18 3.95420025795824  C 18 3.95420025795824  18 9.95695071624879  18 9.95695071624879  C 18 10.5327140631569  17.5253122569461 11  16.9404288223549 11  C 16.9404288223549 11  1.05957145000265 11  1.05957145000265 11  C 0.474688015411484 11  0 10.5327140631569  0 9.95695071624879  C 0 9.95695071624879  0 4.07102216667763  0 4.07102216667763  Z M 14.821285014491 0  C 16.1097238875263 0  17.2201550271397 0.75621069497153  17.719213144049 1.84202524387349  C 15.9931713702886 1.71685930569338  14.2194489552686 1.98283680423486  12.7688956840646 2.88194549702719  C 11.3257593450119 3.76123625128336  9.05191897898917 1.75128031795784  6.9984696328975 2.53148137953322  C 4.52331072133358 3.47335515873583  3.66293860261441 1.85454170978036  1.63174014376283 1.81699192665063  C 1.09347783408832 1.8076044808682  0.631504650293686 1.8503691727927  0.241582345435263 1.93172704042966  C 0.719449091447424 0.797932205171176  1.8553095765441 0  3.17871425922211 0  C 3.17871425922211 0  14.821285014491 0  14.821285014491 0  Z " fill-rule="nonzero" fill="#ffffff" stroke="none" transform="matrix(1 0 0 1 3 12 )" />
  </g>
</svg>