<?xml version="1.0" encoding="utf-8"?>
<svg version="1.1" xmlns:xlink="http://www.w3.org/1999/xlink" width="3px" height="3px" xmlns="http://www.w3.org/2000/svg">
  <defs>
    <mask fill="white" id="clip855">
      <path d="M 1.5 0  C 2.32842694217759 0  3 0.671573249233654  3 1.50000042752887  C 3 2.32842760582408  2.32842694217759 3  1.5 3  C 0.671573057822408 3  0 2.32842760582408  0 1.50000042752887  C 0 0.671573249233654  0.671573057822408 0  1.5 0  Z " fill-rule="evenodd" />
    </mask>
  </defs>
  <g transform="matrix(1 0 0 1 -446 -734 )">
    <path d="M 1.5 0  C 2.32842694217759 0  3 0.671573249233654  3 1.50000042752887  C 3 2.32842760582408  2.32842694217759 3  1.5 3  C 0.671573057822408 3  0 2.32842760582408  0 1.50000042752887  C 0 0.671573249233654  0.671573057822408 0  1.5 0  Z " fill-rule="nonzero" fill="#4a4a4a" stroke="none" transform="matrix(1 0 0 1 446 734 )" />
    <path d="M 1.5 0  C 2.32842694217759 0  3 0.671573249233654  3 1.50000042752887  C 3 2.32842760582408  2.32842694217759 3  1.5 3  C 0.671573057822408 3  0 2.32842760582408  0 1.50000042752887  C 0 0.671573249233654  0.671573057822408 0  1.5 0  Z " stroke-width="4.16666793823242" stroke="#4a4a4a" fill="none" transform="matrix(1 0 0 1 446 734 )" mask="url(#clip855)" />
  </g>
</svg>