<?xml version="1.0" encoding="utf-8"?>
<svg version="1.1" xmlns:xlink="http://www.w3.org/1999/xlink" width="20px" height="6px" xmlns="http://www.w3.org/2000/svg">
  <g transform="matrix(1 0 0 1 -438 -729 )">
    <path d="M 5.85807492940069 0.592356722961068  C 6.18972368999059 0.229299386835667  6.67403683715093 0  7.21309770944462 0  C 8.06801449639159 0  8.78500798556636 0.576433044579128  8.97346871666144 1.34925681486105  C 9.23878773140885 1.16135872290151  9.60412616881079 1.04564751947233  10.0073689363037 1.04564751947233  C 10.3916603702542 1.04564751947233  10.7422615939755 1.15074308495421  11.0033691873235 1.32377918254823  C 11.2013055851898 0.563694228422718  11.9119819265767 0  12.7574230310637 0  C 13.2943781612802 0  13.7776362096015 0.227176176989266  14.1092849701914 0.588110366542837  C 14.1092849701914 0.588110366542837  15.2684761844995 1.6974522198955  15.2684761844995 1.6974522198955  C 15.2684761844995 1.6974522198955  15.3590220269846 1.6974522198955  15.3590220269846 1.6974522198955  C 16.4139809224976 1.6974522198955  17.4320901788516 2.07430992964458  18.2175186695952 2.75583861879881  C 18.2175186695952 2.75583861879881  20 4.3036092742972  20 4.3036092742972  L 14.3177498588014 4.3036092742972  C 14.3177498588014 4.3036092742972  12.3404932538437 6  12.3404932538437 6  C 10.2463682459994 4.77813159980134  9.48620746783809 4.8216558988815  7.82796360213367 5.9745221145889  C 7.82796360213367 5.9745221145889  5.32533165986821 4.3036092742972  5.32533165986821 4.3036092742972  C 5.32533165986821 4.3036092742972  0 4.3036092742972  0 4.3036092742972  C 0 4.3036092742972  0.954937872607468 3.47558381969683  1.78669193598996 2.75265388312242  C 2.57001474741136 2.07324837217731  3.58391220583621 1.6974522198955  4.63571258236586 1.6974522198955  C 4.63571258236586 1.6974522198955  4.70204254785064 1.6974522198955  4.70204254785064 1.6974522198955  L 5.85807492940069 0.592356722961068  Z " fill-rule="nonzero" fill="#4a4a4a" stroke="none" transform="matrix(1 0 0 1 438 729 )" />
  </g>
</svg>