<?xml version="1.0" encoding="utf-8"?>
<svg version="1.1" xmlns:xlink="http://www.w3.org/1999/xlink" width="5px" height="6px" xmlns="http://www.w3.org/2000/svg">
  <g transform="matrix(1 0 0 1 -15 0 )">
    <path d="M 4.49106069711538 0.33296238842267  C 4.36557371057767 -0.0111249683158152  4.06126778334362 -0.103652694455009  3.81238524100393 0.126702711808363  C 3.81238524100393 0.126702711808363  0.278880779559796 3.38348478245215  0.278880779559796 3.38348478245215  C 0.0289525218522346 3.6128763673749  -0.0714372230570105 4.07840657564378  0.0540497634807056 4.42249393238226  C 0.0540497634807056 4.42249393238226  0.50894055727714 5.66679843176774  0.50894055727714 5.66679843176774  C 0.634427543814856 6.01088578850622  0.938733650247839 6.10341350432259  1.18761619258753 5.87402191939984  C 1.18761619258753 5.87402191939984  4.72111951163847 2.6162760583839  4.72111951163847 2.6162760583839  C 4.97104776934603 2.38688447346115  5.07143736305618 1.92135453358568  4.94595037651846 1.57823097754216  C 4.94595037651846 1.57823097754216  4.49106069711538 0.33296238842267  4.49106069711538 0.33296238842267  Z " fill-rule="nonzero" fill="#ffffff" stroke="none" transform="matrix(1 0 0 1 15 0 )" />
  </g>
</svg>