<?xml version="1.0" encoding="utf-8"?>
<svg version="1.1" xmlns:xlink="http://www.w3.org/1999/xlink" width="6px" height="5px" xmlns="http://www.w3.org/2000/svg">
  <g transform="matrix(1 0 0 1 -17 -3 )">
    <path d="M 4.42220720743534 0.05406111360648  C 4.07816072304236 -0.0714521074077685  3.61268725163489 0.0289583954686172  3.38332292182517 0.278938903510596  C 3.38332292182517 0.278938903510596  0.1259629670233 3.81318226333985  0.1259629670233 3.81318226333985  C -0.103401362786415 4.06211683739531  -0.0108845354203031 4.36648638323179  0.333161948972674 4.49199960424604  C 0.333161948972674 4.49199960424604  1.57828244905976 4.94593907683219  1.57828244905976 4.94593907683219  C 1.92232893345274 5.07145229784644  2.3878045517521 4.97104171655413  2.61716888156181 4.72106120851215  C 2.61716888156181 4.72106120851215  5.87356392199934 1.18681818475114  5.87356392199934 1.18681818475114  C 6.10389195854671 0.937883610695681  6.01041032003222 0.633513885622803  5.66732754237689 0.508000664608555  C 5.66732754237689 0.508000664608555  4.42220720743534 0.05406111360648  4.42220720743534 0.05406111360648  Z " fill-rule="nonzero" fill="#ffffff" stroke="none" transform="matrix(1 0 0 1 17 3 )" />
  </g>
</svg>