<?xml version="1.0" encoding="utf-8"?>
<svg version="1.1" xmlns:xlink="http://www.w3.org/1999/xlink" width="12px" height="12px" xmlns="http://www.w3.org/2000/svg">
  <g transform="matrix(1 0 0 1 -5 -7 )">
    <path d="M 6.58181205630157 2.16633838702608  C 6.39448199037733 2.13828007713717  6.20073571601408 2.12389401627631  6.00000072791519 2.12389401627631  C 3.86139317993208 2.12389401627631  2.12389401627631 3.86062868700417  2.12389401627631 6.00000072791519  C 2.12389401627631 8.13845905328442  3.86154167463077 9.8761058017449  6.00000072791519 9.8761058017449  C 8.13937258684741 9.8761058017449  9.8761058017449 8.1386082758983  9.8761058017449 6.00000072791519  C 9.8761058017449 5.80654307192463  9.86261025412914 5.61978587525463  9.83619275606707 5.43816666795063  C 9.75177279194965 4.8577769579296  10.1538352911118 4.31884201795803  10.7342246371752 4.23442168988302  C 11.3146147111539 4.150001361808  11.8535492871678 4.55206386097014  11.9379699792004 5.13245357099117  C 11.979517194479 5.41809113097821  12 5.70708656373501  12 6.00000072791519  C 12 9.311305123425  9.31266414108404 12  6.00000072791519 12  C 2.6885478377067 12  0 9.31145434603887  0 6.00000072791519  C 0 2.68733731474634  2.68869633240538 0  6.00000072791519 0  C 6.30262892030099 0  6.60162517984813 0.0217203523327892  6.89641918500553 0.0658745048736045  C 7.47644602930453 0.152750818798434  7.87622360268642 0.693382847539923  7.78934765271918 1.27340991931242  C 7.70247097483676 1.85343694559022  7.16183926455817 2.25321460996151  6.58181205630157 2.16633838702608  Z " fill-rule="nonzero" fill="#ffffff" stroke="none" transform="matrix(1 0 0 1 5 7 )" />
  </g>
</svg>