<?xml version="1.0" encoding="utf-8"?>
<svg version="1.1" xmlns:xlink="http://www.w3.org/1999/xlink" width="21px" height="21px" xmlns="http://www.w3.org/2000/svg">
  <g transform="matrix(1 0 0 1 0 -2 )">
    <path d="M 12.6776837449504 2.32168819167994  C 11.9835351417015 2.13724823810178  11.2539396770343 2.03883512275507  10.5000006987632 2.03883512275507  C 5.83128716047843 2.03883512275507  2.03883512275507 5.8304105619993  2.03883512275507 10.5000006987632  C 2.03883512275507 15.1686433125796  5.83135843432847 18.9611654013174  10.5000006987632 18.9611654013174  C 15.1695908355272 18.9611654013174  18.9611654013174 15.1687145864297  18.9611654013174 10.5000006987632  C 18.9611654013174 9.816492862067  18.8808858906992 9.15341965743432  18.7285010017936 8.52029754137161  C 18.5967547838163 7.97292066195638  18.9336886333649 7.42238187889981  19.4810662115433 7.29063496215931  C 20.0284423921953 7.15888804541881  20.5789811752519 7.4958225937306  20.7107287907556 8.04319947314583  C 20.9008678572838 8.8331848516915  21 9.65642087880591  21 10.5000006987632  C 21 16.2945884647233  16.2957512067475 21  10.5000006987632 21  C 4.70534130957148 21  0 16.2946611360998  0 10.5000006987632  C 0 4.70425054016062  4.70541258342152 0  10.5000006987632 0  C 11.4321788056592 0  12.3377277444076 0.121780806091938  13.2012488695841 0.351224387499086  C 13.7453785962432 0.495803042917572  14.0692777163938 1.05411050093737  13.9246980128305 1.59823904843354  C 13.7801197067936 2.14236759592971  13.221812074083 2.46626684709843  12.6776837449504 2.32168819167994  Z " fill-rule="nonzero" fill="#ffffff" stroke="none" transform="matrix(1 0 0 1 0 2 )" />
  </g>
</svg>